<?xml version="1.0" encoding="UTF-8"?>
<!DOCTYPE svg PUBLIC "-//W3C//DTD SVG 1.1//EN" "http://www.w3.org/Graphics/SVG/1.1/DTD/svg11.dtd">
<svg xmlns="http://www.w3.org/2000/svg" version="1.1" width="512px" height="512px" style="shape-rendering:geometricPrecision; text-rendering:geometricPrecision; image-rendering:optimizeQuality; fill-rule:evenodd; clip-rule:evenodd" xmlns:xlink="http://www.w3.org/1999/xlink">
<g><path style="opacity:0.981" fill="#000000" d="M 511.5,318.5 C 511.5,329.167 511.5,339.833 511.5,350.5C 505.515,388.338 484.515,414.171 448.5,428C 413.898,439.106 378.898,440.439 343.5,432C 304.423,421.816 275.757,398.816 257.5,363C 276.747,350.699 296.414,338.866 316.5,327.5C 323.747,339.116 332.747,349.283 343.5,358C 365.994,372.486 389.994,375.486 415.5,367C 438.231,355.138 443.398,337.971 431,315.5C 420.773,305.627 408.94,298.127 395.5,293C 368.741,282.954 343.408,270.287 319.5,255C 287.333,229.138 274.166,195.638 280,154.5C 289.545,108.958 317.378,82.4581 363.5,75C 394.452,69.9176 423.786,74.5843 451.5,89C 468.038,100.201 481.038,114.534 490.5,132C 471.448,144.614 452.281,157.114 433,169.5C 417.857,140.011 395.024,131.511 364.5,144C 350.664,156.519 348.164,171.019 357,187.5C 365.777,196.989 376.277,204.155 388.5,209C 413.778,218.807 438.111,230.473 461.5,244C 489.648,261.283 506.314,286.116 511.5,318.5 Z"/></g>
<g><path style="opacity:0.983" fill="#000000" d="M -0.5,372.5 C -0.5,371.5 -0.5,370.5 -0.5,369.5C 18.9057,357.712 38.4057,346.046 58,334.5C 59.2613,334.759 60.2613,335.426 61,336.5C 65.913,346.489 72.413,355.322 80.5,363C 97.6038,373.939 114.937,374.273 132.5,364C 139.631,356.291 143.464,347.125 144,336.5C 144.5,250.167 144.667,163.834 144.5,77.5C 169.167,77.5 193.833,77.5 218.5,77.5C 218.667,165.501 218.5,253.501 218,341.5C 213.902,395.257 185.402,426.757 132.5,436C 96.0938,441.922 62.7604,434.588 32.5,414C 18.4945,402.452 7.49451,388.619 -0.5,372.5 Z"/></g>
</svg>
