<?xml version="1.0" encoding="UTF-8"?>
<!DOCTYPE svg PUBLIC "-//W3C//DTD SVG 1.1//EN" "http://www.w3.org/Graphics/SVG/1.1/DTD/svg11.dtd">
<svg xmlns="http://www.w3.org/2000/svg" version="1.1" width="512px" height="512px" style="shape-rendering:geometricPrecision; text-rendering:geometricPrecision; image-rendering:optimizeQuality; fill-rule:evenodd; clip-rule:evenodd" xmlns:xlink="http://www.w3.org/1999/xlink">
<g><path style="opacity:0.994" fill="#000000" d="M 37.5,-0.5 C 128.167,-0.5 218.833,-0.5 309.5,-0.5C 344.41,32.9089 378.91,66.9089 413,101.5C 413.667,102.833 414.333,104.167 415,105.5C 415.5,128.831 415.667,152.164 415.5,175.5C 404.833,175.5 394.167,175.5 383.5,175.5C 383.5,159.5 383.5,143.5 383.5,127.5C 359.498,127.667 335.498,127.5 311.5,127C 299,123.833 291.167,116 288,103.5C 287.5,79.5023 287.333,55.5023 287.5,31.5C 207.499,31.3333 127.499,31.5 47.5,32C 40.4342,32.4469 35.6008,35.9469 33,42.5C 31.8413,113.465 31.3413,184.465 31.5,255.5C 31.3413,326.535 31.8413,397.535 33,468.5C 35.6008,475.053 40.4342,478.553 47.5,479C 84.8318,479.5 122.165,479.667 159.5,479.5C 159.5,490.167 159.5,500.833 159.5,511.5C 118.833,511.5 78.1667,511.5 37.5,511.5C 17.8333,505.833 5.16667,493.167 -0.5,473.5C -0.5,328.167 -0.5,182.833 -0.5,37.5C 5.16667,17.8333 17.8333,5.16667 37.5,-0.5 Z"/></g>
<g><path style="opacity:0.968" fill="#000000" d="M 148.5,255.5 C 174.556,252.566 195.722,261.233 212,281.5C 220.171,292.848 224.004,305.515 223.5,319.5C 212.5,319.5 201.5,319.5 190.5,319.5C 189.552,303.764 181.552,293.597 166.5,289C 147.293,286.345 134.793,294.178 129,312.5C 127,327.833 127,343.167 129,358.5C 134.793,376.822 147.293,384.655 166.5,382C 181.552,377.403 189.552,367.236 190.5,351.5C 201.5,351.5 212.5,351.5 223.5,351.5C 222.612,381.884 207.945,402.384 179.5,413C 152.369,420.261 129.202,413.761 110,393.5C 102.897,384.292 98.2302,373.958 96,362.5C 95.3333,344.5 95.3333,326.5 96,308.5C 102.347,279.653 119.847,261.987 148.5,255.5 Z"/></g>
<g><path style="opacity:0.973" fill="#000000" d="M 277.5,255.5 C 294.837,255.333 312.17,255.5 329.5,256C 353.728,262.638 366.394,278.471 367.5,303.5C 356.5,303.5 345.5,303.5 334.5,303.5C 334.52,296.379 331.187,291.546 324.5,289C 312.215,287.439 299.882,287.106 287.5,288C 273.656,291.187 269.49,299.354 275,312.5C 276.938,315.106 279.438,316.939 282.5,318C 298.122,319.253 313.788,319.92 329.5,320C 357.921,328.654 370.421,347.82 367,377.5C 361.833,397.333 349.333,409.833 329.5,415C 312.167,415.667 294.833,415.667 277.5,415C 253.272,408.362 240.606,392.529 239.5,367.5C 250.5,367.5 261.5,367.5 272.5,367.5C 273.222,376.723 278.222,381.889 287.5,383C 298.167,383.667 308.833,383.667 319.5,383C 333.344,379.813 337.51,371.646 332,358.5C 330.062,355.894 327.562,354.061 324.5,353C 308.878,351.747 293.212,351.08 277.5,351C 249.079,342.346 236.579,323.18 240,293.5C 245.349,273.652 257.849,260.985 277.5,255.5 Z"/></g>
<g><path style="opacity:0.973" fill="#000000" d="M 511.5,293.5 C 511.5,296.833 511.5,300.167 511.5,303.5C 500.5,303.5 489.5,303.5 478.5,303.5C 478.52,296.379 475.187,291.546 468.5,289C 456.215,287.439 443.882,287.106 431.5,288C 417.656,291.187 413.49,299.354 419,312.5C 422.264,316.382 426.43,318.549 431.5,319C 445.5,319.333 459.5,319.667 473.5,320C 493.348,325.349 506.015,337.849 511.5,357.5C 511.5,364.167 511.5,370.833 511.5,377.5C 506.015,397.151 493.348,409.651 473.5,415C 456.167,415.667 438.833,415.667 421.5,415C 397.272,408.362 384.606,392.529 383.5,367.5C 394.5,367.5 405.5,367.5 416.5,367.5C 416.48,374.621 419.813,379.454 426.5,382C 438.785,383.561 451.118,383.894 463.5,383C 477.344,379.813 481.51,371.646 476,358.5C 474.062,355.894 471.562,354.061 468.5,353C 452.878,351.747 437.212,351.08 421.5,351C 393.079,342.346 380.579,323.18 384,293.5C 389.167,273.667 401.667,261.167 421.5,256C 438.833,255.333 456.167,255.333 473.5,256C 493.348,261.349 506.015,273.849 511.5,293.5 Z"/></g>
</svg>
