<?xml version="1.0" encoding="UTF-8"?>
<!DOCTYPE svg PUBLIC "-//W3C//DTD SVG 1.1//EN" "http://www.w3.org/Graphics/SVG/1.1/DTD/svg11.dtd">
<svg xmlns="http://www.w3.org/2000/svg" version="1.1" width="512px" height="512px" style="shape-rendering:geometricPrecision; text-rendering:geometricPrecision; image-rendering:optimizeQuality; fill-rule:evenodd; clip-rule:evenodd" xmlns:xlink="http://www.w3.org/1999/xlink">
<g><path style="opacity:0.994" fill="#000000" d="M 37.5,-0.5 C 128.167,-0.5 218.833,-0.5 309.5,-0.5C 344.41,32.9089 378.91,66.9089 413,101.5C 413.667,102.833 414.333,104.167 415,105.5C 415.5,128.831 415.667,152.164 415.5,175.5C 404.833,175.5 394.167,175.5 383.5,175.5C 383.5,159.5 383.5,143.5 383.5,127.5C 359.498,127.667 335.498,127.5 311.5,127C 299,123.833 291.167,116 288,103.5C 287.5,79.5023 287.333,55.5023 287.5,31.5C 207.499,31.3333 127.499,31.5 47.5,32C 40.4342,32.4469 35.6008,35.9469 33,42.5C 31.8413,113.465 31.3413,184.465 31.5,255.5C 31.3413,326.535 31.8413,397.535 33,468.5C 35.6008,475.053 40.4342,478.553 47.5,479C 84.8318,479.5 122.165,479.667 159.5,479.5C 159.5,490.167 159.5,500.833 159.5,511.5C 118.833,511.5 78.1667,511.5 37.5,511.5C 17.8333,505.833 5.16667,493.167 -0.5,473.5C -0.5,328.167 -0.5,182.833 -0.5,37.5C 5.16667,17.8333 17.8333,5.16667 37.5,-0.5 Z"/></g>
<g><path style="opacity:1" fill="#000000" d="M 63.5,255.5 C 74.1667,255.5 84.8333,255.5 95.5,255.5C 95.5,276.833 95.5,298.167 95.5,319.5C 106.167,319.5 116.833,319.5 127.5,319.5C 127.5,298.167 127.5,276.833 127.5,255.5C 138.167,255.5 148.833,255.5 159.5,255.5C 159.5,308.833 159.5,362.167 159.5,415.5C 148.833,415.5 138.167,415.5 127.5,415.5C 127.5,394.167 127.5,372.833 127.5,351.5C 116.833,351.5 106.167,351.5 95.5,351.5C 95.5,372.833 95.5,394.167 95.5,415.5C 84.8333,415.5 74.1667,415.5 63.5,415.5C 63.5,362.167 63.5,308.833 63.5,255.5 Z"/></g>
<g><path style="opacity:1" fill="#000000" d="M 175.5,255.5 C 207.5,255.5 239.5,255.5 271.5,255.5C 271.5,266.167 271.5,276.833 271.5,287.5C 260.833,287.5 250.167,287.5 239.5,287.5C 239.5,330.167 239.5,372.833 239.5,415.5C 228.833,415.5 218.167,415.5 207.5,415.5C 207.5,372.833 207.5,330.167 207.5,287.5C 196.833,287.5 186.167,287.5 175.5,287.5C 175.5,276.833 175.5,266.167 175.5,255.5 Z"/></g>
<g><path style="opacity:0.987" fill="#000000" d="M 297.5,255.5 C 303.105,254.908 308.439,255.741 313.5,258C 326.014,270.681 338.681,283.181 351.5,295.5C 364.682,282.485 378.015,269.651 391.5,257C 401.915,253.135 409.748,255.968 415,265.5C 415.5,315.499 415.667,365.499 415.5,415.5C 404.833,415.5 394.167,415.5 383.5,415.5C 383.667,380.832 383.5,346.165 383,311.5C 376.167,318.333 369.333,325.167 362.5,332C 355.732,336.241 348.732,336.575 341.5,333C 334.333,325.833 327.167,318.667 320,311.5C 319.5,346.165 319.333,380.832 319.5,415.5C 308.833,415.5 298.167,415.5 287.5,415.5C 287.333,365.499 287.5,315.499 288,265.5C 290.022,260.98 293.189,257.647 297.5,255.5 Z"/></g>
<g><path style="opacity:0.998" fill="#000000" d="M 511.5,383.5 C 511.5,394.167 511.5,404.833 511.5,415.5C 488.164,415.667 464.831,415.5 441.5,415C 437,413.167 433.833,410 432,405.5C 431.5,355.501 431.333,305.501 431.5,255.5C 442.167,255.5 452.833,255.5 463.5,255.5C 463.5,298.167 463.5,340.833 463.5,383.5C 479.5,383.5 495.5,383.5 511.5,383.5 Z"/></g>
</svg>
